<svg width="41" height="42" viewBox="0 0 41 42" fill="none" xmlns="http://www.w3.org/2000/svg">
<g id="Icon/Add">
<path id="Union" fill-rule="evenodd" clip-rule="evenodd" d="M12.8379 12.2955C12.5553 12.0129 12.0971 12.0129 11.8144 12.2955C11.5318 12.5782 11.5318 13.0364 11.8144 13.319L19.6611 21.1657L11.8145 29.0123C11.5319 29.2949 11.5319 29.7532 11.8145 30.0358C12.0971 30.3184 12.5554 30.3184 12.838 30.0358L20.6846 22.1892L28.5313 30.0359C28.8139 30.3185 29.2721 30.3185 29.5548 30.0359C29.8374 29.7532 29.8374 29.295 29.5548 29.0124L21.7081 21.1657L29.5548 13.319C29.8375 13.0363 29.8375 12.5781 29.5548 12.2955C29.2722 12.0128 28.814 12.0128 28.5314 12.2955L20.6846 20.1422L12.8379 12.2955Z" fill="#9D9FA2"/>
</g>
</svg>
