<svg width="42" height="42" viewBox="0 0 42 42" fill="none" xmlns="http://www.w3.org/2000/svg">
<g id="Icon/Add">
<path id="Union" fill-rule="evenodd" clip-rule="evenodd" d="M21.9042 9.32677C21.9042 8.92707 21.5802 8.60306 21.1805 8.60306C20.7808 8.60306 20.4568 8.92707 20.4568 9.32677V20.4237H9.36C8.96031 20.4237 8.63629 20.7477 8.63629 21.1474C8.63629 21.5471 8.96031 21.8711 9.36 21.8711H20.4568V32.968C20.4568 33.3677 20.7808 33.6917 21.1805 33.6917C21.5802 33.6917 21.9042 33.3677 21.9042 32.968V21.8711H33.0012C33.4009 21.8711 33.7249 21.5471 33.7249 21.1474C33.7249 20.7477 33.4009 20.4237 33.0012 20.4237H21.9042V9.32677Z" fill="#9D9FA2"/>
</g>
</svg>
